<svg width="100" height="100" viewBox="0 0 100 100" fill="none" xmlns="http://www.w3.org/2000/svg">
<rect width="100" height="100" fill="#D4D4D4"/>
<path d="M43.3253 66.2727V75H41.7443V67.8111H41.6932L39.652 69.1151V67.6662L41.821 66.2727H43.3253ZM48.767 75.1662C48.0653 75.1662 47.4631 74.9886 46.9602 74.6335C46.4602 74.2756 46.0753 73.7599 45.8054 73.0866C45.5384 72.4105 45.4048 71.5966 45.4048 70.6449C45.4077 69.6932 45.5426 68.8835 45.8097 68.2159C46.0795 67.5455 46.4645 67.0341 46.9645 66.6818C47.4673 66.3295 48.0682 66.1534 48.767 66.1534C49.4659 66.1534 50.0668 66.3295 50.5696 66.6818C51.0724 67.0341 51.4574 67.5455 51.7244 68.2159C51.9943 68.8864 52.1293 69.696 52.1293 70.6449C52.1293 71.5994 51.9943 72.4148 51.7244 73.0909C51.4574 73.7642 51.0724 74.2784 50.5696 74.6335C50.0696 74.9886 49.4688 75.1662 48.767 75.1662ZM48.767 73.8324C49.3125 73.8324 49.7429 73.5639 50.0582 73.027C50.3764 72.4872 50.5355 71.6932 50.5355 70.6449C50.5355 69.9517 50.4631 69.3693 50.3182 68.8977C50.1733 68.4261 49.9688 68.071 49.7045 67.8324C49.4403 67.5909 49.1278 67.4702 48.767 67.4702C48.2244 67.4702 47.7955 67.7401 47.4801 68.2798C47.1648 68.8168 47.0057 69.6051 47.0028 70.6449C47 71.3409 47.0696 71.9261 47.2116 72.4006C47.3565 72.875 47.5611 73.233 47.8253 73.4744C48.0895 73.7131 48.4034 73.8324 48.767 73.8324ZM56.771 75.1662C56.0692 75.1662 55.467 74.9886 54.9641 74.6335C54.4641 74.2756 54.0792 73.7599 53.8093 73.0866C53.5423 72.4105 53.4087 71.5966 53.4087 70.6449C53.4116 69.6932 53.5465 68.8835 53.8136 68.2159C54.0835 67.5455 54.4684 67.0341 54.9684 66.6818C55.4712 66.3295 56.0721 66.1534 56.771 66.1534C57.4698 66.1534 58.0707 66.3295 58.5735 66.6818C59.0763 67.0341 59.4613 67.5455 59.7283 68.2159C59.9982 68.8864 60.1332 69.696 60.1332 70.6449C60.1332 71.5994 59.9982 72.4148 59.7283 73.0909C59.4613 73.7642 59.0763 74.2784 58.5735 74.6335C58.0735 74.9886 57.4727 75.1662 56.771 75.1662ZM56.771 73.8324C57.3164 73.8324 57.7468 73.5639 58.0621 73.027C58.3803 72.4872 58.5394 71.6932 58.5394 70.6449C58.5394 69.9517 58.467 69.3693 58.3221 68.8977C58.1772 68.4261 57.9727 68.071 57.7085 67.8324C57.4442 67.5909 57.1317 67.4702 56.771 67.4702C56.2283 67.4702 55.7994 67.7401 55.484 68.2798C55.1687 68.8168 55.0096 69.6051 55.0067 70.6449C55.0039 71.3409 55.0735 71.9261 55.2156 72.4006C55.3604 72.875 55.565 73.233 55.8292 73.4744C56.0934 73.7131 56.4073 73.8324 56.771 73.8324Z" fill="#606060"/>
<path d="M48.054 47.4545L49.375 49.8707L50.7173 47.4545H52.3494L50.3764 50.7273L52.3835 54H50.7599L49.375 51.6435L48.0028 54H46.3665L48.3608 50.7273L46.4176 47.4545H48.054Z" fill="#606060"/>
<path d="M43.3253 24.2727V33H41.7443V25.8111H41.6932L39.652 27.1151V25.6662L41.821 24.2727H43.3253ZM48.767 33.1662C48.0653 33.1662 47.4631 32.9886 46.9602 32.6335C46.4602 32.2756 46.0753 31.7599 45.8054 31.0866C45.5384 30.4105 45.4048 29.5966 45.4048 28.6449C45.4077 27.6932 45.5426 26.8835 45.8097 26.2159C46.0795 25.5455 46.4645 25.0341 46.9645 24.6818C47.4673 24.3295 48.0682 24.1534 48.767 24.1534C49.4659 24.1534 50.0668 24.3295 50.5696 24.6818C51.0724 25.0341 51.4574 25.5455 51.7244 26.2159C51.9943 26.8864 52.1293 27.696 52.1293 28.6449C52.1293 29.5994 51.9943 30.4148 51.7244 31.0909C51.4574 31.7642 51.0724 32.2784 50.5696 32.6335C50.0696 32.9886 49.4688 33.1662 48.767 33.1662ZM48.767 31.8324C49.3125 31.8324 49.7429 31.5639 50.0582 31.027C50.3764 30.4872 50.5355 29.6932 50.5355 28.6449C50.5355 27.9517 50.4631 27.3693 50.3182 26.8977C50.1733 26.4261 49.9688 26.071 49.7045 25.8324C49.4403 25.5909 49.1278 25.4702 48.767 25.4702C48.2244 25.4702 47.7955 25.7401 47.4801 26.2798C47.1648 26.8168 47.0057 27.6051 47.0028 28.6449C47 29.3409 47.0696 29.9261 47.2116 30.4006C47.3565 30.875 47.5611 31.233 47.8253 31.4744C48.0895 31.7131 48.4034 31.8324 48.767 31.8324ZM56.771 33.1662C56.0692 33.1662 55.467 32.9886 54.9641 32.6335C54.4641 32.2756 54.0792 31.7599 53.8093 31.0866C53.5423 30.4105 53.4087 29.5966 53.4087 28.6449C53.4116 27.6932 53.5465 26.8835 53.8136 26.2159C54.0835 25.5455 54.4684 25.0341 54.9684 24.6818C55.4712 24.3295 56.0721 24.1534 56.771 24.1534C57.4698 24.1534 58.0707 24.3295 58.5735 24.6818C59.0763 25.0341 59.4613 25.5455 59.7283 26.2159C59.9982 26.8864 60.1332 27.696 60.1332 28.6449C60.1332 29.5994 59.9982 30.4148 59.7283 31.0909C59.4613 31.7642 59.0763 32.2784 58.5735 32.6335C58.0735 32.9886 57.4727 33.1662 56.771 33.1662ZM56.771 31.8324C57.3164 31.8324 57.7468 31.5639 58.0621 31.027C58.3803 30.4872 58.5394 29.6932 58.5394 28.6449C58.5394 27.9517 58.467 27.3693 58.3221 26.8977C58.1772 26.4261 57.9727 26.071 57.7085 25.8324C57.4442 25.5909 57.1317 25.4702 56.771 25.4702C56.2283 25.4702 55.7994 25.7401 55.484 26.2798C55.1687 26.8168 55.0096 27.6051 55.0067 28.6449C55.0039 29.3409 55.0735 29.9261 55.2156 30.4006C55.3604 30.875 55.565 31.233 55.8292 31.4744C56.0934 31.7131 56.4073 31.8324 56.771 31.8324Z" fill="#606060"/>
</svg>
